<svg version="1.1" 
     baseProfile="full"
     xmlns="http://www.w3.org/2000/svg" 
     viewBox="0 0 400 400"
     preserveAspectRatio="xMidYMid meet">
   <title>Moon clockface</title>
   <circle r="197" cx="200" cy="200" fill="none" stroke="mediumturquoise"/>
   <circle r="194" cx="200" cy="200" fill="none" stroke="mediumturquoise"/>
   <circle r="191" cx="200" cy="200" fill="none" stroke="mediumturquoise"/>
   <circle r="5" cx="200" cy="200" fill="mediumturquoise" />
   
   <circle r="20" cx="200" cy="20" fill="gold"/>
   
   <circle r="20" cx="380" cy="200" fill="#0b051f"/>
   <path d="M 380 180 C 353 180, 353 220, 380 220" fill="gold"/>
   
   <circle r="20" cx="20" cy="200" fill="#0b051f"/>
   <path d="M 20 180 C 47 180, 47 220, 20 220" fill="gold"/>

   <circle r="20" cx="200" cy="380" fill="#0b051f"/>
   
   <circle r="20" cx="73" cy="327" fill="#0b051f" />
   <path d="M 74 307 C 100 307, 100 347, 74 347" fill="gold"/>
   <path d="M 73 307 C 84 320, 84 335, 73 347" fill="#0b051f"/>
   
   <circle r="20" cx="73" cy="73" fill="gold" />
   <path d="M 73 53 C 45 53, 45 93, 73 93" fill="#0b051f"/>
   <path d="M 74 53 C 62 57, 62 87, 74 93" fill="gold"/>
   
   <circle r="20" cx="327" cy="73" fill="gold"/>
   <path d="M 328 53 C 354 53, 354 93, 328 93" fill="#0b051f"/>
   <path d="M 327 53 C 338 63, 338 83, 327 93" fill="gold"/>
   
   <circle r="20" cx="327" cy="327" fill="#0b051f"/>
   <path d="M 326 307 C 300 307, 300 347, 326 347 " fill="gold"/>
   <path d="M 327 307 C 315 320, 315 334, 327 347 " fill="#0b051f"/>
   
</svg>
